<?xml version="1.0" standalone="no"?>
<!DOCTYPE svg PUBLIC "-//W3C//DTD SVG 20010904//EN"
 "http://www.w3.org/TR/2001/REC-SVG-20010904/DTD/svg10.dtd">
<svg version="1.0" xmlns="http://www.w3.org/2000/svg"
 width="700.000000pt" height="700.000000pt" viewBox="0 0 700.000000 700.000000"
 preserveAspectRatio="xMidYMid meet">
<metadata>
Created by potrace 1.14, written by Peter Selinger 2001-2017
</metadata>
<g transform="translate(0.000000,700.000000) scale(0.100000,-0.100000)"
fill="#000000" stroke="none">
<path d="M3999 6193 c-62 -18 -99 -39 -139 -83 -34 -37 -36 -38 -127 -44 -50
-3 -98 -8 -105 -11 -7 -2 -31 -6 -53 -9 -235 -26 -649 -175 -883 -317 -35 -22
-66 -39 -68 -39 -4 0 -168 -114 -219 -153 -100 -76 -240 -208 -345 -323 -417
-457 -711 -1130 -834 -1909 -15 -96 -36 -249 -41 -305 -9 -108 -12 -115 -135
-289 -221 -315 -417 -626 -594 -941 -63 -112 -222 -441 -255 -527 -42 -111
-81 -267 -81 -326 0 -66 18 -132 42 -154 15 -13 35 -18 74 -17 132 2 343 168
624 494 86 100 83 97 105 103 69 20 365 41 565 41 189 -1 302 -12 525 -51 32
-6 35 -6 75 -16 38 -9 162 -38 179 -42 123 -28 622 -196 756 -254 11 -5 41
-18 67 -30 26 -12 50 -21 53 -21 16 0 526 -229 885 -397 52 -25 165 -76 250
-114 85 -39 164 -74 175 -79 43 -20 104 -43 196 -75 272 -94 441 -91 576 8
106 78 315 312 377 422 9 17 31 53 48 80 72 117 194 344 291 546 l80 166 64
-14 c235 -49 485 -35 613 34 60 33 68 42 75 83 3 19 11 62 17 95 6 33 12 69
13 80 2 11 6 44 10 74 4 30 8 61 10 70 5 29 18 150 29 271 4 41 9 100 11 130
15 169 22 599 11 720 -3 30 -8 87 -11 125 -37 432 -188 898 -436 1345 -30 53
-189 297 -215 329 -7 9 -51 63 -97 121 -77 96 -254 282 -337 355 -225 196
-563 407 -815 507 -101 41 -284 97 -415 128 -161 38 -165 39 -157 46 8 9 -26
75 -49 96 -81 72 -261 106 -385 71z"/>
</g>
</svg>
